# Blender v2.82 (sub 7) OBJ File: ''
# www.blender.org
mtllib bumper.mtl
o Circle
v -24.999998 2.548035 -2.012264
v -24.999998 2.690300 -1.543281
v -24.999998 2.921325 -1.111064
v -24.999998 3.232233 -0.732223
v -24.999998 3.611075 -0.421316
v -24.999998 4.043293 -0.190292
v -24.999998 4.512276 -0.048028
v -24.999998 -0.000002 -2.499992
v -24.999998 4.999998 2.500008
v -24.999998 -0.000002 2.500008
v -25.000000 2.499998 -2.499992
v -24.999998 4.999998 0.000008
v 25.000000 2.548039 -2.012280
v 24.999998 2.500002 -2.500008
v 25.000000 2.690304 -1.543297
v 25.000000 2.921329 -1.111080
v 25.000000 3.232237 -0.732239
v 25.000000 3.611079 -0.421332
v 25.000000 4.043296 -0.190308
v 25.000000 4.512280 -0.048044
v 25.000000 0.000002 -2.500008
v 25.000000 0.000002 2.499992
v 25.000000 5.000001 2.499992
v 25.000000 5.000001 -0.000008
vt 0.181518 0.809222
vt 0.143633 0.778131
vt 0.504741 0.485998
vt 0.670642 0.814685
vt 0.701733 0.852570
vt 0.993865 0.491462
vt 1.000020 0.664392
vt 0.000020 0.617493
vt 1.000020 0.617493
vt 1.000020 0.536387
vt 0.000020 0.574271
vt 1.000020 0.574271
vt 1.000020 0.213164
vt 0.000020 0.713164
vt 1.000020 0.713164
vt 1.000020 0.664391
vt 0.000020 0.713164
vt 1.000020 0.713164
vt 1.000020 0.258538
vt 0.000020 0.008538
vt 1.000020 0.008538
vt 1.000020 0.574272
vt 0.000020 0.536387
vt 1.000020 0.713164
vt 0.000020 0.664392
vt 1.000020 0.617493
vt 0.000020 0.664391
vt 1.000020 0.713164
vt 0.000020 0.213164
vt 0.000020 0.574272
vt 0.000020 0.617493
vt 1.000020 0.265871
vt 0.000020 0.515871
vt 1.000020 0.515871
vt 0.053513 0.740802
vt 0.004741 0.735998
vt 0.004741 0.485998
vt 0.504741 0.985998
vt 0.212608 0.847106
vt 0.254741 0.985998
vt 0.249937 0.937226
vt 0.235711 0.890328
vt 0.100412 0.755029
vt 0.739062 0.942690
vt 0.743865 0.991462
vt 0.993865 0.991462
vt 0.493865 0.491462
vt 0.632758 0.783595
vt 0.493865 0.741462
vt 0.542638 0.746266
vt 0.589536 0.760492
vt 0.724835 0.895791
vt 0.000020 0.258538
vt 0.000020 0.713164
vt 0.000020 0.713164
vt 0.000020 0.265871
vn -1.0000 0.0000 0.0000
vn 1.0000 0.0000 0.0000
vn -0.0000 0.2903 -0.9569
vn -0.0000 0.7730 -0.6344
vn 0.0000 0.0000 1.0000
vn -0.0000 0.9952 -0.0980
vn -0.0000 -0.0000 -1.0000
vn -0.0000 0.6344 -0.7730
vn -0.0000 0.0980 -0.9952
vn -0.0000 0.9569 -0.2903
vn 0.0000 -1.0000 0.0000
vn -0.0000 0.4714 -0.8819
vn -0.0000 0.8819 -0.4714
vn -0.0000 1.0000 0.0000
usemtl None
s off
f 4/1/1 3/2/1 10/3/1
f 17/4/2 18/5/2 22/6/2
f 7/7/3 19/8/3 6/9/3
f 4/10/4 16/11/4 3/12/4
f 10/13/5 23/14/5 9/15/5
f 1/16/6 14/17/6 11/18/6
f 11/19/7 21/20/7 8/21/7
f 5/22/8 17/23/8 4/10/8
f 12/24/9 20/25/9 7/7/9
f 2/26/10 13/27/10 1/16/10
f 8/28/11 22/29/11 10/13/11
f 6/9/12 18/30/12 5/22/12
f 3/12/13 15/31/13 2/26/13
f 9/32/14 24/33/14 12/34/14
f 1/35/1 11/36/1 8/37/1
f 8/37/1 10/3/1 3/2/1
f 10/3/1 9/38/1 5/39/1
f 4/1/1 10/3/1 5/39/1
f 9/38/1 12/40/1 7/41/1
f 9/38/1 7/41/1 6/42/1
f 2/43/1 1/35/1 8/37/1
f 3/2/1 2/43/1 8/37/1
f 9/38/1 6/42/1 5/39/1
f 20/44/2 24/45/2 23/46/2
f 23/46/2 22/6/2 18/5/2
f 22/6/2 21/47/2 16/48/2
f 17/4/2 22/6/2 16/48/2
f 21/47/2 14/49/2 13/50/2
f 21/47/2 13/50/2 15/51/2
f 19/52/2 20/44/2 23/46/2
f 18/5/2 19/52/2 23/46/2
f 21/47/2 15/51/2 16/48/2
f 7/7/3 20/25/3 19/8/3
f 4/10/4 17/23/4 16/11/4
f 10/13/5 22/29/5 23/14/5
f 1/16/6 13/27/6 14/17/6
f 11/19/7 14/53/7 21/20/7
f 5/22/8 18/30/8 17/23/8
f 12/24/9 24/54/9 20/25/9
f 2/26/10 15/31/10 13/27/10
f 8/28/11 21/55/11 22/29/11
f 6/9/12 19/8/12 18/30/12
f 3/12/13 16/11/13 15/31/13
f 9/32/14 23/56/14 24/33/14
