# Blender v2.82 (sub 7) OBJ File: ''
# www.blender.org
mtllib table.mtl
o Cube_Cube.002
v -25.000000 -1.250000 25.000000
v -25.000000 1.250000 25.000000
v -25.000000 -1.250000 -25.000000
v -25.000000 1.250000 -25.000000
v 25.000000 -1.250000 25.000000
v 25.000000 1.250000 25.000000
v 25.000000 -1.250000 -25.000000
v 25.000000 1.250000 -25.000000
vt 0.998999 0.002002
vt 0.668669 0.332332
vt 0.998999 0.332332
vt 0.332332 0.002002
vt 0.002002 0.332332
vt 0.332332 0.332332
vt 0.332332 0.335335
vt 0.002002 0.665666
vt 0.332332 0.665666
vt 0.665666 0.002002
vt 0.335335 0.332332
vt 0.665666 0.332332
vt 0.665666 0.335335
vt 0.335335 0.665666
vt 0.665666 0.665666
vt 0.987075 0.048436
vt 0.051433 0.984078
vt 0.987075 0.984078
vt 0.331331 0.667668
vt 0.001001 0.667668
vt 0.001001 0.997998
vt 0.664665 0.334334
vt 0.334334 0.334334
vt 0.334334 0.664665
vt 0.664665 0.001001
vt 0.334334 0.001001
vt 0.334334 0.331331
vt 0.331331 0.334334
vt 0.001001 0.334334
vt 0.001001 0.664665
vt 0.331331 0.001001
vt 0.001001 0.001001
vt 0.001001 0.331331
vt 0.962519 0.019022
vt 0.026876 0.019022
vt 0.026876 0.954665
vn -1.0000 0.0000 0.0000
vn 0.0000 0.0000 -1.0000
vn 1.0000 0.0000 0.0000
vn 0.0000 0.0000 1.0000
vn 0.0000 -1.0000 0.0000
vn 0.0000 1.0000 0.0000
usemtl None
s off
f 2/1/1 3/2/1 1/3/1
f 4/4/2 7/5/2 3/6/2
f 8/7/3 5/8/3 7/9/3
f 6/10/4 1/11/4 5/12/4
f 7/13/5 1/14/5 3/15/5
f 4/16/6 6/17/6 8/18/6
f 2/19/1 4/20/1 3/21/1
f 4/22/2 8/23/2 7/24/2
f 8/25/3 6/26/3 5/27/3
f 6/28/4 2/29/4 1/30/4
f 7/31/5 5/32/5 1/33/5
f 4/34/6 2/35/6 6/36/6
