# Blender v2.82 (sub 7) OBJ File: 'farm.blend'
# www.blender.org
mtllib col.mtl
o Base_Cylinder.015
v 0.000000 -0.000000 -2.300000
v 0.000000 0.100000 -2.300000
v 1.991858 -0.000000 -1.150000
v 1.991858 0.100000 -1.150000
v 1.991858 -0.000000 1.150000
v 1.991858 0.100000 1.150000
v -0.000000 -0.000000 2.300000
v -0.000000 0.100000 2.300000
v -1.991858 -0.000000 1.150000
v -1.991858 0.100000 1.150000
v -1.991858 -0.000000 -1.150000
v -1.991858 0.100000 -1.150000
v -0.778339 0.056239 0.461486
v -0.565839 0.056239 0.518425
v -0.778339 0.217818 0.461486
v -0.990840 0.056239 0.518425
v -0.990840 0.217818 0.518425
v -1.146400 0.217818 0.673986
v -1.203339 0.217818 0.886486
v -1.146400 0.056239 0.673986
v -0.410279 0.217818 0.673986
v -0.565839 0.217818 0.518425
v -0.778339 0.217818 1.311486
v -0.565839 0.217818 1.254546
v -0.778339 0.056239 1.311486
v -0.990839 0.217818 1.254546
v -0.990839 0.056239 1.254546
v -1.146400 0.217818 1.098986
v -0.410279 0.217818 1.098986
v -0.353339 0.217818 0.886486
v -0.410279 0.056239 1.098986
v -0.565839 0.056239 1.254546
v -0.353339 0.056239 0.886486
v -0.410279 0.056239 0.673986
v -1.203339 0.056239 0.886486
v -1.146400 0.056239 1.098986
vt 0.574977 0.633831
vt 0.291488 0.638040
vt 0.574977 0.638040
vt 0.597795 0.358760
vt 0.602004 0.075272
vt 0.602004 0.358760
vt 0.574977 0.624822
vt 0.291488 0.629031
vt 0.574977 0.629031
vt 0.588786 0.358760
vt 0.592995 0.075272
vt 0.592995 0.358760
vt 0.286688 0.291488
vt 0.286688 0.574977
vt 0.003200 0.574977
vt 0.574977 0.579777
vt 0.291488 0.583986
vt 0.574977 0.583986
vt 0.579777 0.358760
vt 0.583986 0.075272
vt 0.583986 0.358760
vt 0.286688 0.003200
vt 0.003200 0.286688
vt 0.286688 0.286688
vt 0.573377 0.632231
vt 0.289888 0.632231
vt 0.289888 0.636440
vt 0.596195 0.357160
vt 0.596195 0.073672
vt 0.600404 0.073672
vt 0.573377 0.623222
vt 0.289888 0.623222
vt 0.289888 0.627431
vt 0.587186 0.357160
vt 0.587186 0.073672
vt 0.591395 0.073672
vt 0.001600 0.001600
vt 0.285088 0.001600
vt 0.001600 0.285088
vt 0.291488 0.574977
vt 0.574977 0.574977
vt 0.574977 0.291488
vt 0.574977 0.003200
vt 0.574977 0.286688
vt 0.291488 0.286688
vt 0.573377 0.578177
vt 0.289888 0.578177
vt 0.289888 0.582386
vt 0.578177 0.357160
vt 0.578177 0.073672
vt 0.582386 0.073672
vt 0.573377 0.289888
vt 0.289888 0.289888
vt 0.289888 0.573377
vt 0.285088 0.289888
vt 0.001600 0.289888
vt 0.001600 0.573377
vt 0.289888 0.285088
vt 0.289888 0.001600
vt 0.573377 0.001600
vt 0.677276 0.140944
vt 0.677276 0.127726
vt 0.690494 0.127726
vt 0.165362 0.701103
vt 0.178580 0.687885
vt 0.178580 0.701103
vt 0.692094 0.075272
vt 0.692094 0.088490
vt 0.678876 0.088490
vt 0.690494 0.073672
vt 0.677276 0.086890
vt 0.677276 0.073672
vt 0.592995 0.669867
vt 0.592995 0.683085
vt 0.579777 0.683085
vt 0.016418 0.669867
vt 0.016418 0.683085
vt 0.003200 0.683085
vt 0.217816 0.609413
vt 0.217816 0.578177
vt 0.285088 0.578177
vt 0.629031 0.669867
vt 0.629031 0.683085
vt 0.615813 0.683085
vt 0.591395 0.668267
vt 0.578177 0.681485
vt 0.578177 0.668267
vt 0.606804 0.214616
vt 0.638040 0.214616
vt 0.638040 0.147344
vt 0.579777 0.070472
vt 0.647049 0.070472
vt 0.647049 0.003200
vt 0.538941 0.642840
vt 0.538941 0.656058
vt 0.507704 0.656058
vt 0.507704 0.674076
vt 0.520923 0.674076
vt 0.520923 0.660858
vt 0.070472 0.669867
vt 0.070472 0.683085
vt 0.057254 0.683085
vt 0.669867 0.556959
vt 0.683085 0.543741
vt 0.683085 0.556959
vt 0.453650 0.674076
vt 0.466868 0.674076
vt 0.466868 0.660858
vt 0.668267 0.555359
vt 0.668267 0.542141
vt 0.681485 0.542141
vt 0.681485 0.397996
vt 0.668267 0.397996
vt 0.668267 0.429232
vt 0.665067 0.471668
vt 0.665067 0.502904
vt 0.633831 0.502904
vt 0.678876 0.286688
vt 0.692094 0.286688
vt 0.692094 0.273470
vt 0.556959 0.660858
vt 0.556959 0.674076
vt 0.543741 0.674076
vt 0.165362 0.683085
vt 0.178580 0.669867
vt 0.178580 0.683085
vt 0.163762 0.681485
vt 0.163762 0.668267
vt 0.176980 0.668267
vt 0.219416 0.647049
vt 0.250652 0.647049
vt 0.250652 0.615813
vt 0.068872 0.668267
vt 0.055654 0.681485
vt 0.055654 0.668267
vt 0.014818 0.668267
vt 0.001600 0.668267
vt 0.001600 0.681485
vt 0.615813 0.574977
vt 0.629031 0.574977
vt 0.629031 0.507704
vt 0.555359 0.659258
vt 0.542141 0.672476
vt 0.542141 0.659258
vt 0.519323 0.659258
vt 0.506105 0.659258
vt 0.506105 0.672476
vt 0.489686 0.674076
vt 0.502904 0.660858
vt 0.502904 0.674076
vt 0.488086 0.672476
vt 0.488086 0.659258
vt 0.501305 0.659258
vt 0.632231 0.501305
vt 0.632231 0.470068
vt 0.663467 0.470068
vt 0.430832 0.620022
vt 0.430832 0.588786
vt 0.363560 0.620022
vt 0.606804 0.142544
vt 0.638040 0.142544
vt 0.638040 0.075272
vt 0.452050 0.672476
vt 0.452050 0.659258
vt 0.465268 0.659258
vt 0.237434 0.683085
vt 0.250652 0.669867
vt 0.250652 0.683085
vt 0.235834 0.681485
vt 0.235834 0.668267
vt 0.249052 0.668267
vt 0.627431 0.668267
vt 0.614213 0.681485
vt 0.614213 0.668267
vt 0.690494 0.271870
vt 0.677276 0.271870
vt 0.677276 0.285088
vt 0.678876 0.322724
vt 0.692094 0.309506
vt 0.692094 0.322724
vt 0.677276 0.321124
vt 0.677276 0.307906
vt 0.690494 0.307906
vt 0.111308 0.701103
vt 0.124526 0.687885
vt 0.124526 0.701103
vt 0.109708 0.699503
vt 0.109708 0.686285
vt 0.122926 0.686285
vt 0.163762 0.699503
vt 0.163762 0.686285
vt 0.176980 0.686285
vn 0.5000 0.0000 -0.8660
vn 1.0000 0.0000 0.0000
vn 0.5000 0.0000 0.8660
vn -0.5000 0.0000 0.8660
vn 0.0000 1.0000 0.0000
vn -1.0000 0.0000 0.0000
vn -0.5000 0.0000 -0.8660
vn 0.0000 -1.0000 0.0000
vn 0.2588 0.0000 -0.9659
vn -0.2588 0.0000 -0.9659
vn -0.7071 0.0000 -0.7071
vn -0.9659 0.0000 -0.2588
vn 0.2588 0.0000 0.9659
vn -0.2588 0.0000 0.9659
vn 0.9659 0.0000 0.2588
vn 0.7071 0.0000 0.7071
vn 0.9659 0.0000 -0.2588
vn -0.9659 0.0000 0.2588
vn -0.7071 0.0000 0.7071
vn 0.7071 0.0000 -0.7071
usemtl BaseMat
s off
f 2/1/1 3/2/1 1/3/1
f 4/4/2 5/5/2 3/6/2
f 6/7/3 7/8/3 5/9/3
f 8/10/4 9/11/4 7/12/4
f 10/13/5 8/14/5 6/15/5
f 10/16/6 11/17/6 9/18/6
f 12/19/7 1/20/7 11/21/7
f 3/22/8 7/23/8 11/24/8
f 2/25/1 4/26/1 3/27/1
f 4/28/2 6/29/2 5/30/2
f 6/31/3 8/32/3 7/33/3
f 8/34/4 10/35/4 9/36/4
f 6/37/5 4/38/5 10/39/5
f 4/40/5 2/41/5 10/42/5
f 2/43/5 12/44/5 10/45/5
f 10/46/6 12/47/6 11/48/6
f 12/49/7 2/50/7 1/51/7
f 11/52/8 1/53/8 3/54/8
f 3/55/8 5/56/8 7/57/8
f 7/58/8 9/59/8 11/60/8
usemtl StandMat
f 16/61/8 13/62/8 14/63/8
f 15/64/9 14/65/9 13/66/9
f 17/67/10 15/68/10 13/69/10
f 17/70/10 13/71/10 16/72/10
f 18/73/11 17/74/11 16/75/11
f 15/76/5 17/77/5 18/78/5
f 18/79/5 19/80/5 23/81/5
f 19/82/12 18/83/12 20/84/12
f 18/85/11 16/86/11 20/87/11
f 21/88/5 22/89/5 18/90/5
f 18/91/5 23/92/5 21/93/5
f 22/94/5 15/95/5 18/96/5
f 23/97/5 24/98/5 29/99/5
f 24/100/13 23/101/13 25/102/13
f 23/103/14 27/104/14 25/105/14
f 28/106/5 26/107/5 23/108/5
f 23/109/14 26/110/14 27/111/14
f 19/112/5 28/113/5 23/114/5
f 23/115/5 29/116/5 21/117/5
f 29/118/5 30/119/5 21/120/5
f 30/121/15 29/122/15 31/123/15
f 29/124/16 32/125/16 31/126/16
f 29/127/16 24/128/16 32/129/16
f 31/130/8 32/131/8 27/132/8
f 24/133/13 25/134/13 32/135/13
f 32/136/8 25/137/8 27/138/8
f 33/139/8 31/140/8 27/141/8
f 30/142/15 31/143/15 33/144/15
f 14/145/8 34/146/8 33/147/8
f 21/148/17 33/149/17 34/150/17
f 21/151/17 30/152/17 33/153/17
f 16/154/8 14/155/8 33/156/8
f 27/157/8 35/158/8 33/159/8
f 35/160/8 16/161/8 33/162/8
f 27/163/8 36/164/8 35/165/8
f 28/166/18 35/167/18 36/168/18
f 28/169/18 19/170/18 35/171/18
f 19/172/12 20/173/12 35/174/12
f 35/175/8 20/176/8 16/177/8
f 26/178/19 36/179/19 27/180/19
f 26/181/19 28/182/19 36/183/19
f 22/184/20 34/185/20 14/186/20
f 22/187/20 21/188/20 34/189/20
f 15/190/9 22/191/9 14/192/9
